<svg width="16" height="16" viewBox="0 0 16 16" xmlns="http://www.w3.org/2000/svg"><title>sh-spotify-gray</title><path d="M11.353 7.21C9.459 6.085 6.334 5.98 4.526 6.53a.55.55 0 1 1-.32-1.052c2.076-.63 5.527-.508 7.708.786a.55.55 0 0 1-.561.946zm-.062 1.666a.458.458 0 0 1-.63.15c-1.58-.97-3.988-1.251-5.856-.684a.459.459 0 0 1-.266-.877c2.134-.647 4.787-.334 6.601.781a.458.458 0 0 1 .15.63zm-.72 1.6a.366.366 0 0 1-.503.122c-1.38-.843-3.117-1.034-5.162-.566a.366.366 0 1 1-.163-.714c2.238-.512 4.158-.292 5.707.655a.366.366 0 0 1 .122.503zM7.878 2a5.877 5.877 0 1 0 0 11.753A5.877 5.877 0 0 0 7.877 2z" fill="#999" fill-rule="evenodd"/></svg>